<?xml version="1.0" encoding="iso-8859-1"?>
<!-- Uploaded to: SVG Repo, www.svgrepo.com, Generator: SVG Repo Mixer Tools -->
<!DOCTYPE svg PUBLIC "-//W3C//DTD SVG 1.1//EN" "http://www.w3.org/Graphics/SVG/1.1/DTD/svg11.dtd">
<svg fill="#008f6b" height="800px" width="800px" version="1.1" id="Capa_1" xmlns="http://www.w3.org/2000/svg" xmlns:xlink="http://www.w3.org/1999/xlink" 
	 viewBox="0 0 294 294" xml:space="preserve">
<path d="M195.5,162h16.915c-5.59,25.43-25.248,45.52-51.248,51.299V196c0-8.284-6.716-15-15-15s-15,6.716-15,15v17.299
	c-25-5.779-44.991-25.869-50.582-51.299H96.5c8.284,0,15-6.716,15-15s-6.716-15-15-15H80.817
	c5.889-24.956,25.35-44.596,50.35-50.299V97c0,8.284,6.716,15,15,15s15-6.716,15-15V81.701c25,5.703,45.127,25.343,51.016,50.299
	H195.5c-8.284,0-15,6.716-15,15S187.216,162,195.5,162z M294,147c0,81.056-65.944,147-147,147S0,228.056,0,147S65.944,0,147,0
	S294,65.944,294,147z M276.5,147c0-8.284-6.716-15-15-15h-18.737c-6.664-41.538-39.596-74.394-81.596-80.846V31
	c0-8.284-6.716-15-15-15s-15,6.716-15,15v20.154c-41,6.452-74.266,39.308-80.93,80.846H30.5c-8.284,0-15,6.716-15,15s6.716,15,15,15
	h19.579c6.291,42.01,39.088,75.342,81.088,81.846V262c0,8.284,6.716,15,15,15s15-6.716,15-15v-18.154
	c42-6.504,75.463-39.836,81.754-81.846H261.5C269.784,162,276.5,155.284,276.5,147z"/>
</svg>